<svg xmlns="http://www.w3.org/2000/svg" xmlns:xlink="http://www.w3.org/1999/xlink" width="263.278" height="251.008" viewBox="0 0 263.278 251.008"><defs><style>.a,.d,.j,.k{opacity:0.5;}.b{fill:none;stroke:#535461;stroke-miterlimit:10;stroke-width:2px;}.c,.k{fill:#00599e;}.d,.h{fill:#fff;}.e{fill:#555;}.f{opacity:0.1;}.g{fill:url(#a);}.i,.j{fill:#d7d7d7;}.l{fill:url(#b);}.m{fill:#493545;}.n{fill:#c77485;}.o{fill:#444176;}.p{fill:url(#c);}.q{fill:#f1d2d7;}.r{fill:url(#d);}.s{fill:#4a4a4a;}.t{opacity:0.05;}.u{opacity:0.02;}.v{fill:#3f3e3e;}.w{fill:#e82127;}.x{fill:#d6dbe6;}.y{fill:#fdc2cc;}.z{fill:#865a61;}.aa{fill:url(#e);}.ab{fill:#0064b1;}.ac{fill:url(#f);}.ad{fill:#53526b;}.ae{fill:#555388;}</style><linearGradient id="a" x1="0.5" y1="1" x2="0.5" gradientUnits="objectBoundingBox"><stop offset="0" stop-color="gray" stop-opacity="0.251"/><stop offset="0.54" stop-color="gray" stop-opacity="0.122"/><stop offset="1" stop-color="gray" stop-opacity="0.102"/></linearGradient><linearGradient id="b" y1="1" y2="0" xlink:href="#a"/><linearGradient id="c" x1="0" y1="0.5" x2="1" y2="0.5" xlink:href="#a"/><linearGradient id="d" x1="2.581" y1="1" x2="2.581" y2="0" xlink:href="#a"/><linearGradient id="e" y1="1" y2="0" xlink:href="#a"/><linearGradient id="f" x1="-25.357" y1="1.001" x2="-25.357" y2="0" xlink:href="#a"/></defs><g transform="translate(-46.873 -8.885)"><g class="a" transform="translate(243.175 110.167)"><path class="b" d="M898.19,531.2s1.016-30.1,17.3-47.11A45.627,45.627,0,0,0,928,458.081a76.744,76.744,0,0,0,.382-14.031" transform="translate(-878.108 -424.841)"/><path class="c" d="M1001.451,390.1c-1.115,3.362-10.432,11.085-10.432,11.085s-2.854-11.765-1.74-15.124a6.412,6.412,0,1,1,12.172,4.037Z" transform="translate(-940.972 -381.666)"/><path class="c" d="M1008.779,454.34c-2.771,2.217-14.779,3.639-14.779,3.639s4-11.426,6.774-13.64a6.411,6.411,0,1,1,8.006,10Z" transform="translate(-944.418 -423.951)"/><path class="c" d="M973.508,554.557c-3.5.517-14.6-4.311-14.6-4.311s9.219-7.845,12.723-8.363a6.412,6.412,0,1,1,1.875,12.686Z" transform="translate(-920.132 -492.503)"/><path class="c" d="M927.808,626.83c-3.365,1.1-15.118-1.792-15.118-1.792s7.762-9.29,11.128-10.392a6.412,6.412,0,0,1,4,12.184Z" transform="translate(-888.144 -542.687)"/><path class="c" d="M950.188,459.459c1.635,3.141,12.073,9.29,12.073,9.29s.948-12.067-.687-15.211a6.411,6.411,0,0,0-11.374,5.918Z" transform="translate(-913.603 -429.018)"/><path class="c" d="M896.578,540.493c2.5,2.509,14.287,5.256,14.287,5.256s-2.706-11.8-5.2-14.308a6.411,6.411,0,1,0-9.083,9.049Z" transform="translate(-875.699 -484.018)"/><path class="c" d="M859.589,630.974c2.038,2.894,13.194,7.6,13.194,7.6s-.671-12.085-2.713-14.983a6.411,6.411,0,1,0-10.469,7.39Z" transform="translate(-850.503 -547.099)"/><path class="b" d="M876.354,579.5s-9.237-13.437-7.617-26.08a24.706,24.706,0,0,0-2.919-15.352,41.57,41.57,0,0,0-4.348-6.232" transform="translate(-852.695 -485.6)"/><path class="c" d="M849.421,500.566c.594,1.823-.976,8.184-.976,8.184s-5.028-4.206-5.622-6.026a3.471,3.471,0,1,1,6.6-2.155Z" transform="translate(-839.669 -462.301)"/><path class="c" d="M877.8,523.128c-.49,1.847-5.268,6.34-5.268,6.34s-1.934-6.263-1.444-8.117a3.472,3.472,0,0,1,6.712,1.777Z" transform="translate(-859.299 -476.553)"/><path class="c" d="M893.2,575.861c-1.358,1.352-7.747,2.814-7.747,2.814s1.49-6.383,2.851-7.735a3.473,3.473,0,1,1,4.9,4.926Z" transform="translate(-869.291 -511.963)"/><path class="c" d="M898.174,622.424C897.063,623.985,891,626.5,891,626.5s.391-6.543,1.5-8.1a3.471,3.471,0,0,1,5.659,4.021Z" transform="translate(-873.132 -544.494)"/><path class="c" d="M849.464,547.191c1.721.844,8.24.166,8.24.166s-3.47-5.561-5.191-6.4a3.47,3.47,0,0,0-3.048,6.235Z" transform="translate(-843.038 -491.665)"/><path class="c" d="M852.2,599.761c1.9.289,7.913-2.306,7.913-2.306s-4.976-4.268-6.869-4.545a3.471,3.471,0,0,0-1.044,6.863Z" transform="translate(-844.237 -527.839)"/><path class="c" d="M865.425,651.137c1.82.616,8.19-.924,8.19-.924s-4.181-5.047-6-5.653a3.472,3.472,0,1,0-2.189,6.589Z" transform="translate(-853.786 -563.49)"/><path class="d" d="M849.421,500.566c.594,1.823-.976,8.184-.976,8.184s-5.028-4.206-5.622-6.026a3.471,3.471,0,1,1,6.6-2.155Z" transform="translate(-839.669 -462.301)"/><path class="d" d="M877.8,523.128c-.49,1.847-5.268,6.34-5.268,6.34s-1.934-6.263-1.444-8.117a3.472,3.472,0,0,1,6.712,1.777Z" transform="translate(-859.299 -476.553)"/><path class="d" d="M893.2,575.861c-1.358,1.352-7.747,2.814-7.747,2.814s1.49-6.383,2.851-7.735a3.473,3.473,0,1,1,4.9,4.926Z" transform="translate(-869.291 -511.963)"/><path class="d" d="M898.174,622.424C897.063,623.985,891,626.5,891,626.5s.391-6.543,1.5-8.1a3.471,3.471,0,0,1,5.659,4.021Z" transform="translate(-873.132 -544.494)"/><path class="d" d="M849.464,547.191c1.721.844,8.24.166,8.24.166s-3.47-5.561-5.191-6.4a3.47,3.47,0,0,0-3.048,6.235Z" transform="translate(-843.038 -491.665)"/><path class="d" d="M852.2,599.761c1.9.289,7.913-2.306,7.913-2.306s-4.976-4.268-6.869-4.545a3.471,3.471,0,0,0-1.044,6.863Z" transform="translate(-844.237 -527.839)"/><path class="d" d="M865.425,651.137c1.82.616,8.19-.924,8.19-.924s-4.181-5.047-6-5.653a3.472,3.472,0,1,0-2.189,6.589Z" transform="translate(-853.786 -563.49)"/><path class="e" d="M796.338,691.048h26.274l6.571-40.068H789.77Z" transform="translate(-789.77 -560.71)"/><path class="f" d="M794.8,650.98l6.137,37.441h22.108l-.431,2.627H796.338L789.77,650.98Z" transform="translate(-789.77 -560.71)"/></g><rect class="g" width="192.75" height="232.562" transform="translate(61.975 12.094)"/><rect class="h" width="187.823" height="226.619" transform="translate(64.439 15.068)"/><rect class="i" width="75.745" height="3.695" transform="translate(137.413 40.624)"/><rect class="i" width="75.745" height="3.695" transform="translate(137.413 52.325)"/><rect class="c" width="39.412" height="3.695" transform="translate(155.579 64.025)"/><rect class="j" width="75.745" height="3.695" transform="translate(137.413 114.83)"/><rect class="j" width="75.745" height="3.695" transform="translate(137.413 126.53)"/><rect class="k" width="39.412" height="3.695" transform="translate(155.579 138.231)"/><rect class="j" width="75.745" height="3.695" transform="translate(137.413 189.035)"/><rect class="j" width="75.745" height="3.695" transform="translate(137.413 200.736)"/><rect class="k" width="39.412" height="3.695" transform="translate(155.579 212.436)"/><g class="a" transform="translate(74.6 107.436)"><path class="i" d="M327.355,393.736a20.839,20.839,0,0,1-5.04,13.625c-.16.188-.326.373-.5.554q-.126.142-.259.277a20.551,20.551,0,0,1-2.235,2.029l-.055.04A20.459,20.459,0,0,1,315.3,412.7h0a20.628,20.628,0,0,1-2.229.893l-.28.089c-.172.058-.351.111-.527.16l-.071.022a21.039,21.039,0,0,1-11.562,0H300.6c-.308-.089-.616-.182-.9-.283l-.262-.092a20.308,20.308,0,0,1-2.894-1.281l-.058-.031a21.017,21.017,0,0,1-4.1-2.9l-.1-.1a19.567,19.567,0,0,1-1.789-1.847c-.074-.083-.145-.169-.216-.256-.135-.16-.265-.326-.394-.493a20.938,20.938,0,1,1,37.472-12.846Z" transform="translate(-285.48 -372.798)"/><path class="l" d="M331.522,411.167l-1.589-.714a6.319,6.319,0,0,0,.031-.727,5.7,5.7,0,0,0,0-.616c-.157-1.62-1.189-3.03-1.918-4.511a12.812,12.812,0,0,1-1.253-4.311c-.194-1.847,0-3.763-.677-5.5a9.922,9.922,0,0,0-2.808-3.606,14.252,14.252,0,0,0-4.511-2.86,7.977,7.977,0,0,0-5.373-.145,11.592,11.592,0,0,0-3.87,2.8,13.009,13.009,0,0,0-2.186,2.488,10.761,10.761,0,0,0-1.232,3.763,57.555,57.555,0,0,0-.757,6.287c-.12,1.758-.308,3.753-1.81,4.831-.733.527-1.764.822-2.1,1.62a1.656,1.656,0,0,0-.111.754,2.768,2.768,0,0,0,.046.637c.022.123.046.243.077.366a27.005,27.005,0,0,0-1.084,3.288c-.225.831-.431,1.647-.616,2.439h.764l2.87.068h.04l3.079.071h.015l2.87.068h.071l.828.059h.271l11.476.265h.062l.764.019h.268l2.3.052h0l3.387.077h.025l2.549.062h.794l-.135-2.673C332.634,411.423,331.522,411.167,331.522,411.167Zm-12.892-.326c0,2.266-2.426,5.04-2.426,5.04l-2.442-3.325.089-.129,2.352,3.2s2.426-2.771,2.426-5.04a2.67,2.67,0,0,1,.194-.333l.055.172A3.273,3.273,0,0,0,318.63,410.841Zm3.732,8.892a1.854,1.854,0,0,0-.022-.345c-.022-.114-.018-.216-.034-.326s-.028-.219-.043-.329-.037-.219-.059-.329-.043-.219-.068-.329a.516.516,0,0,0-.025-.111q-.051-.217-.111-.434c-.04-.145-.065-.234-.1-.348a.472.472,0,0,0-.049-.154c-.018-.049-.052-.166-.08-.249l-.055-.16c-.025-.071-.049-.145-.077-.216-.046-.129-.1-.256-.145-.385s-.1-.256-.154-.382c-.1-.259-.219-.514-.333-.773-.446-1-.948-1.98-1.41-2.953a15.7,15.7,0,0,1-.659-1.564l-.058.077a3.27,3.27,0,0,0-.249.416c0,2.266-2.426,5.04-2.426,5.04l-2.442-3.325-2.137,3.079a2.491,2.491,0,0,0-.856,1.422c-.068.2-.132.422-.194.653-.043.157-.083.308-.12.483-.022.083-.04.166-.059.253l-.055.262v.04c-.037.179-.074.363-.108.551s-.074.4-.108.616q-.037.2-.065.4c-.043.256-.08.514-.117.773-.022.151-.043.308-.062.446l-.074.573c.157.471.333.924.514,1.4a2.2,2.2,0,0,1,.2.791,22.44,22.44,0,0,0,11.562,0,.105.105,0,0,1,0-.028,3.213,3.213,0,0,1-.074-.785h0a20.28,20.28,0,0,1,.308-2.2,7.533,7.533,0,0,0,.058-1.084v-.129c-.009-.117-.012-.222-.015-.323Zm0,0a1.854,1.854,0,0,0-.022-.345c-.022-.114-.018-.216-.034-.326s-.028-.219-.043-.329-.037-.219-.059-.329-.043-.219-.068-.329a.516.516,0,0,0-.025-.111q-.051-.217-.111-.434c-.04-.145-.065-.234-.1-.348a.472.472,0,0,0-.049-.154c-.018-.049-.052-.166-.08-.249l-.055-.16c-.025-.071-.049-.145-.077-.216-.046-.129-.1-.256-.145-.385s-.1-.256-.154-.382c-.1-.259-.219-.514-.333-.773-.446-1-.948-1.98-1.41-2.953a15.7,15.7,0,0,1-.659-1.564l-.058.077a3.27,3.27,0,0,0-.249.416c0,2.266-2.426,5.04-2.426,5.04l-2.442-3.325-2.137,3.079a2.491,2.491,0,0,0-.856,1.422c-.068.2-.132.422-.194.653-.043.157-.083.308-.12.483-.022.083-.04.166-.059.253l-.055.262v.04c-.037.179-.074.363-.108.551s-.074.4-.108.616q-.037.2-.065.4c-.043.256-.08.514-.117.773-.022.151-.043.308-.062.446l-.074.573c.157.471.333.924.514,1.4a2.2,2.2,0,0,1,.2.791,22.44,22.44,0,0,0,11.562,0,.105.105,0,0,1,0-.028,3.213,3.213,0,0,1-.074-.785h0a20.28,20.28,0,0,1,.308-2.2,7.533,7.533,0,0,0,.058-1.084v-.129c-.009-.117-.012-.222-.015-.323Zm0,0a1.854,1.854,0,0,0-.022-.345c-.022-.114-.018-.216-.034-.326s-.028-.219-.043-.329-.037-.219-.059-.329-.043-.219-.068-.329a.516.516,0,0,0-.025-.111q-.051-.217-.111-.434c-.04-.145-.065-.234-.1-.348a.472.472,0,0,0-.049-.154c-.018-.049-.052-.166-.08-.249l-.055-.16c-.025-.071-.049-.145-.077-.216-.046-.129-.1-.256-.145-.385s-.1-.256-.154-.382c-.1-.259-.219-.514-.333-.773-.446-1-.948-1.98-1.41-2.953a15.7,15.7,0,0,1-.659-1.564l-.058.077a3.27,3.27,0,0,0-.249.416c0,2.266-2.426,5.04-2.426,5.04l-2.442-3.325-2.137,3.079a2.491,2.491,0,0,0-.856,1.422c-.068.2-.132.422-.194.653-.043.157-.083.308-.12.483-.022.083-.04.166-.059.253l-.055.262v.04c-.037.179-.074.363-.108.551s-.074.4-.108.616q-.037.2-.065.4c-.043.256-.08.514-.117.773-.022.151-.043.308-.062.446l-.074.573c.157.471.333.924.514,1.4a2.2,2.2,0,0,1,.2.791,22.44,22.44,0,0,0,11.562,0,.105.105,0,0,1,0-.028,3.213,3.213,0,0,1-.074-.785h0a20.28,20.28,0,0,1,.308-2.2,7.533,7.533,0,0,0,.058-1.084v-.129c-.009-.117-.012-.222-.015-.323Zm0,0a1.854,1.854,0,0,0-.022-.345c-.022-.114-.018-.216-.034-.326s-.028-.219-.043-.329-.037-.219-.059-.329-.043-.219-.068-.329a.516.516,0,0,0-.025-.111q-.051-.217-.111-.434c-.04-.145-.065-.234-.1-.348a.472.472,0,0,0-.049-.154c-.018-.049-.052-.166-.08-.249l-.055-.16c-.025-.071-.049-.145-.077-.216-.046-.129-.1-.256-.145-.385s-.1-.256-.154-.382c-.1-.259-.219-.514-.333-.773-.446-1-.948-1.98-1.41-2.953a15.7,15.7,0,0,1-.659-1.564l-.058.077a3.27,3.27,0,0,0-.249.416c0,2.266-2.426,5.04-2.426,5.04l-2.442-3.325-2.137,3.079a2.491,2.491,0,0,0-.856,1.422c-.068.2-.132.422-.194.653-.043.157-.083.308-.12.483-.022.083-.04.166-.059.253l-.055.262v.04c-.037.179-.074.363-.108.551s-.074.4-.108.616q-.037.2-.065.4c-.043.256-.08.514-.117.773-.022.151-.043.308-.062.446l-.074.573c.157.471.333.924.514,1.4a2.2,2.2,0,0,1,.2.791,22.44,22.44,0,0,0,11.562,0,.105.105,0,0,1,0-.028,3.213,3.213,0,0,1-.074-.785h0a20.28,20.28,0,0,1,.308-2.2,7.533,7.533,0,0,0,.058-1.084v-.129c-.009-.117-.012-.222-.015-.323Z" transform="translate(-295.377 -383.166)"/><rect class="m" width="14.164" height="9.545" transform="translate(12.932 15.091)"/><path class="n" d="M343.653,436.026l-5.927,8.35-6.2-.539s-8.083.536-2.694-5.656c2.59-2.977,3.436-5.459,3.618-7.23a5.6,5.6,0,0,0-.385-3.005l6.734-.807a5.025,5.025,0,0,0-.111,2.811C339.536,433.449,343.653,436.026,343.653,436.026Z" transform="translate(-314.205 -410.408)"/><path class="f" d="M350.113,429.928a6.731,6.731,0,0,1-6.238,1,5.6,5.6,0,0,0-.385-3.005l6.734-.807a5.026,5.026,0,0,0-.111,2.808Z" transform="translate(-325.628 -410.394)"/><circle class="n" cx="6.734" cy="6.734" r="6.734" transform="translate(13.69 7.163)"/><path class="f" d="M339.417,451.305l-.157-.616-.135-.542-.2-.8-.037-.148-.031-.123s.16-.483-.9-.326l-.2.034c-.166.034-.36.08-.582.142l-.2.062-.265.083h0a5.773,5.773,0,0,0-2.235,1.349,5.034,5.034,0,0,0-.748.905c-.022.031-.037.059-.055.083a2.9,2.9,0,0,0-.194.357c0,2.426-2.426,5.388-2.426,5.388l-2.368-3.421-.046-.068-.563-.819-.2-.265-.068-.092-1.232-1.654-.308-.413-.1-.138-.151-.2-.354-.471-1.386.81-1.847,1.078-1.078,7v.194l.034.579.225,3.806v.052l-.394,1.576.059.031a20.31,20.31,0,0,0,2.894,1.281l.262.092c.308.1.6.194.9.283a1.089,1.089,0,0,1,.025.139V466.4a21.038,21.038,0,0,0,11.562,0l.071-.022c.175-.049.354-.1.527-.16l.28-.089a20.619,20.619,0,0,0,2.229-.893l.259-5.512.185-3.975v-.228Z" transform="translate(-310.215 -425.342)"/><path class="h" d="M337.353,462.156a2.121,2.121,0,0,0-.022-.369c-.022-.123-.018-.231-.034-.348s-.028-.234-.043-.351-.037-.234-.058-.351-.043-.234-.068-.351a.528.528,0,0,0-.025-.117c-.034-.154-.071-.308-.111-.465s-.065-.249-.1-.373a.525.525,0,0,0-.049-.163c-.018-.052-.052-.179-.08-.268l-.055-.172c-.025-.077-.049-.154-.077-.231-.046-.139-.1-.274-.145-.413s-.1-.274-.154-.41c-.1-.277-.219-.551-.333-.825-.446-1.065-.948-2.115-1.41-3.156a17.437,17.437,0,0,1-.659-1.672l-.059.083a3.553,3.553,0,0,0-.249.443c0,2.423-2.426,5.388-2.426,5.388l-2.442-3.556-2.137,3.285a2.683,2.683,0,0,0-.856,1.521c-.068.216-.132.45-.194.7-.043.166-.083.342-.12.517-.022.089-.04.179-.058.271l-.055.28v.043c-.037.191-.074.388-.108.588s-.074.431-.108.65q-.037.212-.065.425c-.043.274-.08.551-.117.825-.022.16-.043.308-.062.477l-.074.616c.157.5.332,1,.514,1.493a2.481,2.481,0,0,1,.2.847,21.039,21.039,0,0,0,11.562,0,.118.118,0,0,1,0-.031,3.667,3.667,0,0,1-.074-.841h0a23.088,23.088,0,0,1,.308-2.355,8.622,8.622,0,0,0,.059-1.158V462.5C337.359,462.378,337.356,462.267,337.353,462.156Zm0,0a2.121,2.121,0,0,0-.022-.369c-.022-.123-.018-.231-.034-.348s-.028-.234-.043-.351-.037-.234-.058-.351-.043-.234-.068-.351a.528.528,0,0,0-.025-.117c-.034-.154-.071-.308-.111-.465s-.065-.249-.1-.373a.525.525,0,0,0-.049-.163c-.018-.052-.052-.179-.08-.268l-.055-.172c-.025-.077-.049-.154-.077-.231-.046-.139-.1-.274-.145-.413s-.1-.274-.154-.41c-.1-.277-.219-.551-.333-.825-.446-1.065-.948-2.115-1.41-3.156a17.437,17.437,0,0,1-.659-1.672l-.059.083a3.553,3.553,0,0,0-.249.443c0,2.423-2.426,5.388-2.426,5.388l-2.442-3.556-2.137,3.285a2.683,2.683,0,0,0-.856,1.521c-.068.216-.132.45-.194.7-.043.166-.083.342-.12.517-.022.089-.04.179-.058.271l-.055.28v.043c-.037.191-.074.388-.108.588s-.074.431-.108.65q-.037.212-.065.425c-.043.274-.08.551-.117.825-.022.16-.043.308-.062.477l-.074.616c.157.5.332,1,.514,1.493a2.481,2.481,0,0,1,.2.847,21.039,21.039,0,0,0,11.562,0,.118.118,0,0,1,0-.031,3.667,3.667,0,0,1-.074-.841h0a23.088,23.088,0,0,1,.308-2.355,8.622,8.622,0,0,0,.059-1.158V462.5C337.359,462.378,337.356,462.267,337.353,462.156Zm0,0a2.121,2.121,0,0,0-.022-.369c-.022-.123-.018-.231-.034-.348s-.028-.234-.043-.351-.037-.234-.058-.351-.043-.234-.068-.351a.528.528,0,0,0-.025-.117c-.034-.154-.071-.308-.111-.465s-.065-.249-.1-.373a.525.525,0,0,0-.049-.163c-.018-.052-.052-.179-.08-.268l-.055-.172c-.025-.077-.049-.154-.077-.231-.046-.139-.1-.274-.145-.413s-.1-.274-.154-.41c-.1-.277-.219-.551-.333-.825-.446-1.065-.948-2.115-1.41-3.156a17.437,17.437,0,0,1-.659-1.672l-.059.083a3.553,3.553,0,0,0-.249.443c0,2.423-2.426,5.388-2.426,5.388l-2.442-3.556-2.137,3.285a2.683,2.683,0,0,0-.856,1.521c-.068.216-.132.45-.194.7-.043.166-.083.342-.12.517-.022.089-.04.179-.058.271l-.055.28v.043c-.037.191-.074.388-.108.588s-.074.431-.108.65q-.037.212-.065.425c-.043.274-.08.551-.117.825-.022.16-.043.308-.062.477l-.074.616c.157.5.332,1,.514,1.493a2.481,2.481,0,0,1,.2.847,21.039,21.039,0,0,0,11.562,0,.118.118,0,0,1,0-.031,3.667,3.667,0,0,1-.074-.841h0a23.088,23.088,0,0,1,.308-2.355,8.622,8.622,0,0,0,.059-1.158V462.5C337.359,462.378,337.356,462.267,337.353,462.156Zm3.264-5.779-1.1-4.388-.188-.751-.052-.206h0l-.268-1.072a.2.2,0,0,0,0-.028h0a.246.246,0,0,0-.022-.139c-.04-.08-.142-.163-.379-.185a1.931,1.931,0,0,0-.271,0h0a4.7,4.7,0,0,0-.791.148c-.126.034-.262.071-.406.117l-.265.083h-.025a5.875,5.875,0,0,0-1.94,1.078,5.237,5.237,0,0,0-.985,1.09l-.058.083a3.564,3.564,0,0,0-.249.443c0,2.423-2.426,5.388-2.426,5.388l-2.442-3.556-.139-.2-.025-.034-.354-.52-.268-.357-.071-.092-1.262-1.684h0l-.4-.545v-.018l-.139-.188-.265-.351-.924.539-2.309,1.346-1.065,6.931v.074l.031.5.228,3.858v.219l-.348,1.389a20.3,20.3,0,0,0,2.894,1.281l.262.092c.308.1.6.194.9.283a1.1,1.1,0,0,1,.025.139v-.132a21.041,21.041,0,0,0,11.562,0l.071-.022c.176-.049.354-.1.526-.16l.28-.089a20.615,20.615,0,0,0,2.229-.893h0l.256-5.505.185-3.932Zm-15.143,10.632a1.1,1.1,0,0,1,.025.139v-.132Zm11.879-4.853a2.121,2.121,0,0,0-.022-.369c-.022-.123-.018-.231-.034-.348s-.028-.234-.043-.351-.037-.234-.058-.351-.043-.234-.068-.351a.528.528,0,0,0-.025-.117c-.034-.154-.071-.308-.111-.465s-.065-.249-.1-.373a.525.525,0,0,0-.049-.163c-.018-.052-.052-.179-.08-.268l-.055-.172c-.025-.077-.049-.154-.077-.231-.046-.139-.1-.274-.145-.413s-.1-.274-.154-.41c-.1-.277-.219-.551-.333-.825-.446-1.065-.948-2.115-1.41-3.156a17.437,17.437,0,0,1-.659-1.672l-.059.083a3.553,3.553,0,0,0-.249.443c0,2.423-2.426,5.388-2.426,5.388l-2.442-3.556-2.137,3.285a2.683,2.683,0,0,0-.856,1.521c-.068.216-.132.45-.194.7-.043.166-.083.342-.12.517-.022.089-.04.179-.058.271l-.055.28v.043c-.037.191-.074.388-.108.588s-.074.431-.108.65q-.037.212-.065.425c-.043.274-.08.551-.117.825-.022.16-.043.308-.062.477l-.074.616c.157.5.332,1,.514,1.493a2.481,2.481,0,0,1,.2.847,21.039,21.039,0,0,0,11.562,0,.118.118,0,0,1,0-.031,3.667,3.667,0,0,1-.074-.841h0a23.088,23.088,0,0,1,.308-2.355,8.622,8.622,0,0,0,.059-1.158V462.5C337.359,462.378,337.356,462.267,337.353,462.156Zm0,0a2.121,2.121,0,0,0-.022-.369c-.022-.123-.018-.231-.034-.348s-.028-.234-.043-.351-.037-.234-.058-.351-.043-.234-.068-.351a.528.528,0,0,0-.025-.117c-.034-.154-.071-.308-.111-.465s-.065-.249-.1-.373a.525.525,0,0,0-.049-.163c-.018-.052-.052-.179-.08-.268l-.055-.172c-.025-.077-.049-.154-.077-.231-.046-.139-.1-.274-.145-.413s-.1-.274-.154-.41c-.1-.277-.219-.551-.333-.825-.446-1.065-.948-2.115-1.41-3.156a17.437,17.437,0,0,1-.659-1.672l-.059.083a3.553,3.553,0,0,0-.249.443c0,2.423-2.426,5.388-2.426,5.388l-2.442-3.556-2.137,3.285a2.683,2.683,0,0,0-.856,1.521c-.068.216-.132.45-.194.7-.043.166-.083.342-.12.517-.022.089-.04.179-.058.271l-.055.28v.043c-.037.191-.074.388-.108.588s-.074.431-.108.65q-.037.212-.065.425c-.043.274-.08.551-.117.825-.022.16-.043.308-.062.477l-.074.616c.157.5.332,1,.514,1.493a2.481,2.481,0,0,1,.2.847,21.039,21.039,0,0,0,11.562,0,.118.118,0,0,1,0-.031,3.667,3.667,0,0,1-.074-.841h0a23.088,23.088,0,0,1,.308-2.355,8.622,8.622,0,0,0,.059-1.158V462.5C337.359,462.378,337.356,462.267,337.353,462.156Zm0,0a2.121,2.121,0,0,0-.022-.369c-.022-.123-.018-.231-.034-.348s-.028-.234-.043-.351-.037-.234-.058-.351-.043-.234-.068-.351a.528.528,0,0,0-.025-.117c-.034-.154-.071-.308-.111-.465s-.065-.249-.1-.373a.525.525,0,0,0-.049-.163c-.018-.052-.052-.179-.08-.268l-.055-.172c-.025-.077-.049-.154-.077-.231-.046-.139-.1-.274-.145-.413s-.1-.274-.154-.41c-.1-.277-.219-.551-.333-.825-.446-1.065-.948-2.115-1.41-3.156a17.437,17.437,0,0,1-.659-1.672l-.059.083a3.553,3.553,0,0,0-.249.443c0,2.423-2.426,5.388-2.426,5.388l-2.442-3.556-2.137,3.285a2.683,2.683,0,0,0-.856,1.521c-.068.216-.132.45-.194.7-.043.166-.083.342-.12.517-.022.089-.04.179-.058.271l-.055.28v.043c-.037.191-.074.388-.108.588s-.074.431-.108.65q-.037.212-.065.425c-.043.274-.08.551-.117.825-.022.16-.043.308-.062.477l-.074.616c.157.5.332,1,.514,1.493a2.481,2.481,0,0,1,.2.847,21.039,21.039,0,0,0,11.562,0,.118.118,0,0,1,0-.031,3.667,3.667,0,0,1-.074-.841h0a23.088,23.088,0,0,1,.308-2.355,8.622,8.622,0,0,0,.059-1.158V462.5C337.359,462.378,337.356,462.267,337.353,462.156Zm0,0a2.121,2.121,0,0,0-.022-.369c-.022-.123-.018-.231-.034-.348s-.028-.234-.043-.351-.037-.234-.058-.351-.043-.234-.068-.351a.528.528,0,0,0-.025-.117c-.034-.154-.071-.308-.111-.465s-.065-.249-.1-.373a.525.525,0,0,0-.049-.163c-.018-.052-.052-.179-.08-.268l-.055-.172c-.025-.077-.049-.154-.077-.231-.046-.139-.1-.274-.145-.413s-.1-.274-.154-.41c-.1-.277-.219-.551-.333-.825-.446-1.065-.948-2.115-1.41-3.156a17.437,17.437,0,0,1-.659-1.672l-.059.083a3.553,3.553,0,0,0-.249.443c0,2.423-2.426,5.388-2.426,5.388l-2.442-3.556-2.137,3.285a2.683,2.683,0,0,0-.856,1.521c-.068.216-.132.45-.194.7-.043.166-.083.342-.12.517-.022.089-.04.179-.058.271l-.055.28v.043c-.037.191-.074.388-.108.588s-.074.431-.108.65q-.037.212-.065.425c-.043.274-.08.551-.117.825-.022.16-.043.308-.062.477l-.074.616c.157.5.332,1,.514,1.493a2.481,2.481,0,0,1,.2.847,21.039,21.039,0,0,0,11.562,0,.118.118,0,0,1,0-.031,3.667,3.667,0,0,1-.074-.841h0a23.088,23.088,0,0,1,.308-2.355,8.622,8.622,0,0,0,.059-1.158V462.5C337.359,462.378,337.356,462.267,337.353,462.156Zm0,0a2.121,2.121,0,0,0-.022-.369c-.022-.123-.018-.231-.034-.348s-.028-.234-.043-.351-.037-.234-.058-.351-.043-.234-.068-.351a.528.528,0,0,0-.025-.117c-.034-.154-.071-.308-.111-.465s-.065-.249-.1-.373a.525.525,0,0,0-.049-.163c-.018-.052-.052-.179-.08-.268l-.055-.172c-.025-.077-.049-.154-.077-.231-.046-.139-.1-.274-.145-.413s-.1-.274-.154-.41c-.1-.277-.219-.551-.333-.825-.446-1.065-.948-2.115-1.41-3.156a17.437,17.437,0,0,1-.659-1.672l-.059.083a3.553,3.553,0,0,0-.249.443c0,2.423-2.426,5.388-2.426,5.388l-2.442-3.556-2.137,3.285a2.683,2.683,0,0,0-.856,1.521c-.068.216-.132.45-.194.7-.043.166-.083.342-.12.517-.022.089-.04.179-.058.271l-.055.28v.043c-.037.191-.074.388-.108.588s-.074.431-.108.65q-.037.212-.065.425c-.043.274-.08.551-.117.825-.022.16-.043.308-.062.477l-.074.616c.157.5.332,1,.514,1.493a2.481,2.481,0,0,1,.2.847,21.039,21.039,0,0,0,11.562,0,.118.118,0,0,1,0-.031,3.667,3.667,0,0,1-.074-.841h0a23.088,23.088,0,0,1,.308-2.355,8.622,8.622,0,0,0,.059-1.158V462.5C337.359,462.378,337.356,462.267,337.353,462.156Zm0,0a2.121,2.121,0,0,0-.022-.369c-.022-.123-.018-.231-.034-.348s-.028-.234-.043-.351-.037-.234-.058-.351-.043-.234-.068-.351a.528.528,0,0,0-.025-.117c-.034-.154-.071-.308-.111-.465s-.065-.249-.1-.373a.525.525,0,0,0-.049-.163c-.018-.052-.052-.179-.08-.268l-.055-.172c-.025-.077-.049-.154-.077-.231-.046-.139-.1-.274-.145-.413s-.1-.274-.154-.41c-.1-.277-.219-.551-.333-.825-.446-1.065-.948-2.115-1.41-3.156a17.437,17.437,0,0,1-.659-1.672l-.059.083a3.553,3.553,0,0,0-.249.443c0,2.423-2.426,5.388-2.426,5.388l-2.442-3.556-2.137,3.285a2.683,2.683,0,0,0-.856,1.521c-.068.216-.132.45-.194.7-.043.166-.083.342-.12.517-.022.089-.04.179-.058.271l-.055.28v.043c-.037.191-.074.388-.108.588s-.074.431-.108.65q-.037.212-.065.425c-.043.274-.08.551-.117.825-.022.16-.043.308-.062.477l-.074.616c.157.5.332,1,.514,1.493a2.481,2.481,0,0,1,.2.847,21.039,21.039,0,0,0,11.562,0,.118.118,0,0,1,0-.031,3.667,3.667,0,0,1-.074-.841h0a23.088,23.088,0,0,1,.308-2.355,8.622,8.622,0,0,0,.059-1.158V462.5C337.359,462.378,337.356,462.267,337.353,462.156Zm0,0a2.121,2.121,0,0,0-.022-.369c-.022-.123-.018-.231-.034-.348s-.028-.234-.043-.351-.037-.234-.058-.351-.043-.234-.068-.351a.528.528,0,0,0-.025-.117c-.034-.154-.071-.308-.111-.465s-.065-.249-.1-.373a.525.525,0,0,0-.049-.163c-.018-.052-.052-.179-.08-.268l-.055-.172c-.025-.077-.049-.154-.077-.231-.046-.139-.1-.274-.145-.413s-.1-.274-.154-.41c-.1-.277-.219-.551-.333-.825-.446-1.065-.948-2.115-1.41-3.156a17.437,17.437,0,0,1-.659-1.672l-.059.083a3.553,3.553,0,0,0-.249.443c0,2.423-2.426,5.388-2.426,5.388l-2.442-3.556-2.137,3.285a2.683,2.683,0,0,0-.856,1.521c-.068.216-.132.45-.194.7-.043.166-.083.342-.12.517-.022.089-.04.179-.058.271l-.055.28v.043c-.037.191-.074.388-.108.588s-.074.431-.108.65q-.037.212-.065.425c-.043.274-.08.551-.117.825-.022.16-.043.308-.062.477l-.074.616c.157.5.332,1,.514,1.493a2.481,2.481,0,0,1,.2.847,21.039,21.039,0,0,0,11.562,0,.118.118,0,0,1,0-.031,3.667,3.667,0,0,1-.074-.841h0a23.088,23.088,0,0,1,.308-2.355,8.622,8.622,0,0,0,.059-1.158V462.5C337.359,462.378,337.356,462.267,337.353,462.156Zm0,0a2.121,2.121,0,0,0-.022-.369c-.022-.123-.018-.231-.034-.348s-.028-.234-.043-.351-.037-.234-.058-.351-.043-.234-.068-.351a.528.528,0,0,0-.025-.117c-.034-.154-.071-.308-.111-.465s-.065-.249-.1-.373a.525.525,0,0,0-.049-.163c-.018-.052-.052-.179-.08-.268l-.055-.172c-.025-.077-.049-.154-.077-.231-.046-.139-.1-.274-.145-.413s-.1-.274-.154-.41c-.1-.277-.219-.551-.333-.825-.446-1.065-.948-2.115-1.41-3.156a17.437,17.437,0,0,1-.659-1.672l-.059.083a3.553,3.553,0,0,0-.249.443c0,2.423-2.426,5.388-2.426,5.388l-2.442-3.556-2.137,3.285a2.683,2.683,0,0,0-.856,1.521c-.068.216-.132.45-.194.7-.043.166-.083.342-.12.517-.022.089-.04.179-.058.271l-.055.28v.043c-.037.191-.074.388-.108.588s-.074.431-.108.65q-.037.212-.065.425c-.043.274-.08.551-.117.825-.022.16-.043.308-.062.477l-.074.616c.157.5.332,1,.514,1.493a2.481,2.481,0,0,1,.2.847,21.039,21.039,0,0,0,11.562,0,.118.118,0,0,1,0-.031,3.667,3.667,0,0,1-.074-.841h0a23.088,23.088,0,0,1,.308-2.355,8.622,8.622,0,0,0,.059-1.158V462.5C337.359,462.378,337.356,462.267,337.353,462.156Z" transform="translate(-310.368 -425.955)"/><path class="f" d="M315.148,454.451l-.206-.028a7.5,7.5,0,0,1-.924-.185l-.114-.031c-.751-.212-1.573-.594-1.758-1.265a1.2,1.2,0,0,1,.019-.656,5.62,5.62,0,0,1,.419-1.059v-.019a1.457,1.457,0,0,1,.077-.139,3.08,3.08,0,0,1,1.112-1.21l-.37.058-3.128.508-4.849.782s-.862-.172-2.035,3.061a.5.5,0,0,1-.04.12c-.283.791-.582,1.78-.89,3.014-.212.856-.406,1.7-.585,2.512-.052.246-.1.49-.154.73a19.555,19.555,0,0,0,1.789,1.847l.1.1a21.018,21.018,0,0,0,4.1,2.9l.059.031a20.288,20.288,0,0,0,2.894,1.281l.262.092c.055-.57.117-1.2.191-1.847a.526.526,0,0,1,.025-.194l.074-.616c.018-.157.04-.308.062-.477.037-.274.074-.551.117-.825q.028-.212.065-.425c.034-.219.071-.437.108-.65s.071-.4.108-.588v-.043l.055-.28c.018-.092.037-.182.058-.271.037-.176.077-.351.12-.517.062-.249.126-.483.194-.7a2.631,2.631,0,0,1,.856-1.521l2.137-3.285.089-.139.04-.062Z" transform="translate(-296.72 -426.132)"/><path class="o" d="M314.482,454.471l-2.269,3.485a2.6,2.6,0,0,0-.841,1.475c-.071.228-.142.477-.209.739a36.836,36.836,0,0,0-.7,4.03.481.481,0,0,1-.025.185c-.1.856-.191,1.7-.262,2.439a20.312,20.312,0,0,1-2.894-1.281l-.058-.031a21.018,21.018,0,0,1-4.1-2.9l-.1-.1a19.566,19.566,0,0,1-1.789-1.847c-.074-.083-.145-.169-.216-.256.034-.16.068-.308.1-.48.176-.816.37-1.654.582-2.506a30.344,30.344,0,0,1,1.047-3.449.926.926,0,0,1,.04-.1c1.09-2.805,1.875-2.648,1.875-2.648l5.12-.825,3.233-.523-.1.059a3.279,3.279,0,0,0-.89.948l-.089.151c-.037.059-.071.123-.108.188a5.45,5.45,0,0,0-.425,1.078,1.133,1.133,0,0,0,.074.881,2.933,2.933,0,0,0,1.9,1.1l.12.031A7.722,7.722,0,0,0,314.482,454.471Z" transform="translate(-296.235 -426.146)"/><path class="f" d="M381.061,458.929l-.126-2.734c.539-4.311-.539-4.578-.539-4.578L379.115,451h-.034l-5.151-2.5-.2-.1-.062-.028h0L373,448.05h0l-.425-.206-.794-.385-.268-.129V448.4c0,.308.028.668.052,1.087.055,1.053.157,2.463.339,4.126.1.964.231,2.017.391,3.147.1.668.163,1.333.206,1.983a34.89,34.89,0,0,1-.2,6.558l.28-.089a20.637,20.637,0,0,0,2.229-.893h0a20.462,20.462,0,0,0,3.972-2.439l.055-.04a20.541,20.541,0,0,0,2.235-2.029Z" transform="translate(-345.021 -424.381)"/><path class="o" d="M381.927,458.894l-.126-2.74c.539-4.311-.539-4.579-.539-4.579l-1.539-.745h-.031l-5.167-2.506-.237-.114-.046-.022-.379-.185-.5-.243-.991-.48v.437h0v.542c0,.308.028.711.055,1.17.052.982.145,2.269.308,3.8.111,1.05.249,2.217.431,3.473q.142,1.007.2,1.992a34.856,34.856,0,0,1-.191,6.466,20.647,20.647,0,0,0,2.229-.893h0a20.465,20.465,0,0,0,3.972-2.439l.055-.04a20.542,20.542,0,0,0,2.235-2.029q.135-.135.259-.277Z" transform="translate(-345.616 -424.346)"/><path class="f" d="M321.093,391.517a4.477,4.477,0,0,0-.422,1.539c-.329,1.2-1.635,1.958-1.934,3.171-.176.708.028,1.459-.092,2.18-.219,1.327-1.432,2.226-2.109,3.387a4.569,4.569,0,0,0-.28,3.972,6.362,6.362,0,0,1,.391,1,3.666,3.666,0,0,1-.1,1.54,4.879,4.879,0,0,0,.062,3.292,3.15,3.15,0,0,0,2.306,1.478,8.963,8.963,0,0,0,2.824-.129,8.167,8.167,0,0,0,2.95-.862l-3.335-8.049a6.716,6.716,0,0,1-.677-2.534,5.57,5.57,0,0,1,.416-1.891,16.382,16.382,0,0,1,2.771-4.788c.483.56.446,1.413.85,2.035a3.212,3.212,0,0,0,1.373,1.025,45.49,45.49,0,0,0,4.862,2.032.637.637,0,0,1,.474.948l-1.256,5.185c-.277,1.142-.52,2.463.191,3.387s2.315,1.361,2.325,2.553a4.063,4.063,0,0,0,0,.567c.083.557.745.825,1.309.853a3.9,3.9,0,0,0,3.914-3.193c.308-2.038-1.041-3.917-1.6-5.9-.948-3.341.308-7.26-1.555-10.195-1.509-2.38-4.258-3.027-6.869-3.322C326.047,390.583,322.383,389.814,321.093,391.517Z" transform="translate(-306.554 -385.007)"/><path class="m" d="M321.093,390.517a4.478,4.478,0,0,0-.422,1.54c-.329,1.2-1.635,1.958-1.934,3.171-.176.708.028,1.459-.092,2.18-.219,1.327-1.432,2.226-2.109,3.387a4.569,4.569,0,0,0-.28,3.972,6.368,6.368,0,0,1,.391,1,3.667,3.667,0,0,1-.1,1.54,4.879,4.879,0,0,0,.062,3.292,3.15,3.15,0,0,0,2.306,1.478,8.962,8.962,0,0,0,2.823-.129,8.166,8.166,0,0,0,2.95-.862l-3.335-8.049a6.718,6.718,0,0,1-.677-2.534,5.568,5.568,0,0,1,.416-1.891,16.38,16.38,0,0,1,2.771-4.788c.483.56.446,1.413.85,2.035a3.212,3.212,0,0,0,1.373,1.025,45.487,45.487,0,0,0,4.862,2.032.637.637,0,0,1,.474.948l-1.256,5.185c-.277,1.142-.52,2.463.191,3.387s2.315,1.361,2.325,2.552a4.063,4.063,0,0,0,0,.567c.083.557.745.825,1.309.853a3.9,3.9,0,0,0,3.913-3.193c.308-2.038-1.041-3.917-1.6-5.9-.948-3.341.308-7.26-1.555-10.195-1.509-2.38-4.258-3.027-6.869-3.322C326.047,389.584,322.383,388.814,321.093,390.517Z" transform="translate(-306.554 -384.315)"/></g><g class="a" transform="translate(74.6 181.642)"><path class="i" d="M327.355,634.736a20.839,20.839,0,0,1-5.04,13.625c-.16.188-.326.372-.5.554q-.126.142-.259.277a20.549,20.549,0,0,1-2.235,2.029l-.055.04A20.463,20.463,0,0,1,315.3,653.7h0a20.635,20.635,0,0,1-2.229.893l-.28.089c-.172.058-.351.111-.527.16l-.071.021a21.04,21.04,0,0,1-11.562,0H300.6c-.308-.089-.616-.182-.9-.283l-.262-.092a20.291,20.291,0,0,1-2.894-1.281l-.058-.031a21.017,21.017,0,0,1-4.1-2.9l-.1-.1a19.535,19.535,0,0,1-1.789-1.848c-.074-.083-.145-.169-.216-.255-.135-.16-.265-.326-.394-.493a20.938,20.938,0,1,1,37.472-12.846Z" transform="translate(-285.48 -613.798)"/><path class="p" d="M332.533,657.248l-.126-2.771c.539-4.382-.539-4.656-.539-4.656l-1.54-.757-.031-.015-5.167-2.546-.237-.117-.031-.126s.1-.308-.41-.36a1.876,1.876,0,0,1-.129-.785,3.366,3.366,0,0,1,.847-1.54,6.324,6.324,0,0,0,1.013-4.486,10.552,10.552,0,0,0-1.718-4.335l-.1-.145a5.217,5.217,0,0,0,.182-1.361c0-3.544-3.584-6.417-8.006-6.417-4,0-7.337,2.368-7.916,5.456a2.8,2.8,0,0,0-.243.382c-.813,1.521.443,2.657.483,4.175a5.4,5.4,0,0,1-1.232,2.83c-.557.887-.97,2.066-.4,2.941.188.289.471.508.641.81.594,1.05-.394,2.254-.754,3.405a3.254,3.254,0,0,0-.1.41l-2.377.388s-.785-.16-1.875,2.691a.966.966,0,0,0-.04.1,31.2,31.2,0,0,0-1.047,3.507q-.319,1.3-.582,2.546c-.037.163-.071.326-.1.49.071.086.142.176.215.259A19.762,19.762,0,0,0,303,659.1l.1.1a21.024,21.024,0,0,0,4.1,2.953l.058.031a20.156,20.156,0,0,0,2.894,1.3l.262.092c.308.1.6.2.9.289a1.1,1.1,0,0,1,.025.142v-.136a20.71,20.71,0,0,0,11.562,0l.071-.022c.176-.049.354-.1.527-.163l.28-.089a20.753,20.753,0,0,0,6.2-3.387l.055-.04a20.671,20.671,0,0,0,2.235-2.063q.135-.136.259-.28Z" transform="translate(-296.221 -622.817)"/><path class="o" d="M322.27,648.971a5.181,5.181,0,0,1-1.232,2.771,2.743,2.743,0,0,0-.4,2.891c.188.283.471.5.641.8.594,1.032-.394,2.217-.754,3.35a4.206,4.206,0,0,0,.942,3.833,10.2,10.2,0,0,0,3.3,2.411,29.448,29.448,0,0,0,8.166,2.907,7.817,7.817,0,0,0,4.477-.2A4.76,4.76,0,0,0,340.1,662.5c-.354-1.619-1.54-2.922-2.155-4.452a2.084,2.084,0,0,1-.2-.964,3.255,3.255,0,0,1,.847-1.509,6.158,6.158,0,0,0,1-4.382,10.285,10.285,0,0,0-1.718-4.268,4.676,4.676,0,0,0-1.232-1.355,5.406,5.406,0,0,0-2.3-.7c-3.344-.468-6.808-.979-10.179-1.152a2.184,2.184,0,0,0-2.374,1.152C320.976,646.36,322.23,647.478,322.27,648.971Z" transform="translate(-309.624 -634.502)"/><path class="n" d="M347.379,676.335l-6.346,9.025-6.2-.539s-.2,2.155-2.694-5.656c-1.392-4.369,1.438-2.851,2-4.061s1.54-2.279,1.623-3.171a5.6,5.6,0,0,0-.385-3.005l6.734-.807a5.025,5.025,0,0,0-.111,2.811C342.844,674.435,347.379,676.335,347.379,676.335Z" transform="translate(-317.512 -651.394)"/><ellipse class="o" cx="8.006" cy="6.312" rx="8.006" ry="6.312" transform="translate(12.316 4.622)"/><path class="f" d="M350.113,670.928a6.731,6.731,0,0,1-6.238,1,5.6,5.6,0,0,0-.385-3.005l6.734-.807A5.025,5.025,0,0,0,350.113,670.928Z" transform="translate(-325.628 -651.394)"/><circle class="n" cx="6.734" cy="6.734" r="6.734" transform="translate(13.69 7.162)"/><path class="f" d="M339.417,692.305l-.157-.616-.135-.542-.2-.8-.037-.148-.031-.123s.16-.483-.9-.326l-.2.034c-.166.034-.36.08-.582.142l-.2.062-.265.083h0a5.775,5.775,0,0,0-2.235,1.349,5.034,5.034,0,0,0-.748.905c-.022.031-.037.059-.055.083a2.915,2.915,0,0,0-.194.357c0,2.426-2.426,5.388-2.426,5.388l-2.368-3.421-.046-.068-.563-.819-.2-.265-.068-.092-1.232-1.653-.308-.413-.1-.139-.151-.2-.354-.471-1.386.81-1.847,1.078-1.078,7v.194l.034.579.225,3.806v.052l-.394,1.576.059.031a20.311,20.311,0,0,0,2.894,1.281l.262.092c.308.1.6.194.9.283a1.09,1.09,0,0,1,.025.139V707.4a21.041,21.041,0,0,0,11.562,0l.071-.022c.175-.049.354-.1.527-.16l.28-.089a20.632,20.632,0,0,0,2.229-.893l.259-5.512.185-3.975v-.228Z" transform="translate(-310.215 -666.342)"/><path class="o" d="M337.353,703.156a2.121,2.121,0,0,0-.022-.369c-.022-.123-.018-.231-.034-.348s-.028-.234-.043-.351-.037-.234-.058-.351-.043-.234-.068-.351a.524.524,0,0,0-.025-.117c-.034-.154-.071-.308-.111-.465s-.065-.249-.1-.373a.525.525,0,0,0-.049-.163c-.018-.052-.052-.179-.08-.268l-.055-.172c-.025-.077-.049-.154-.077-.231-.046-.139-.1-.274-.145-.413s-.1-.274-.154-.41c-.1-.277-.219-.551-.333-.825-.446-1.065-.948-2.115-1.41-3.156a17.447,17.447,0,0,1-.659-1.672l-.059.083a3.552,3.552,0,0,0-.249.443c0,2.423-2.426,5.388-2.426,5.388l-2.442-3.556-2.137,3.285a2.684,2.684,0,0,0-.856,1.521c-.068.216-.132.45-.194.7-.043.166-.083.342-.12.517-.022.089-.04.179-.058.271l-.055.28v.043c-.037.191-.074.388-.108.588s-.074.431-.108.65q-.037.212-.065.425c-.043.274-.08.551-.117.825-.022.16-.043.308-.062.477l-.074.616c.157.505.332,1,.514,1.493a2.481,2.481,0,0,1,.2.847,21.04,21.04,0,0,0,11.562,0,.119.119,0,0,1,0-.031,3.666,3.666,0,0,1-.074-.841h0a23.093,23.093,0,0,1,.308-2.356,8.625,8.625,0,0,0,.059-1.158V703.5C337.359,703.378,337.356,703.267,337.353,703.156Zm0,0a2.121,2.121,0,0,0-.022-.369c-.022-.123-.018-.231-.034-.348s-.028-.234-.043-.351-.037-.234-.058-.351-.043-.234-.068-.351a.524.524,0,0,0-.025-.117c-.034-.154-.071-.308-.111-.465s-.065-.249-.1-.373a.525.525,0,0,0-.049-.163c-.018-.052-.052-.179-.08-.268l-.055-.172c-.025-.077-.049-.154-.077-.231-.046-.139-.1-.274-.145-.413s-.1-.274-.154-.41c-.1-.277-.219-.551-.333-.825-.446-1.065-.948-2.115-1.41-3.156a17.447,17.447,0,0,1-.659-1.672l-.059.083a3.552,3.552,0,0,0-.249.443c0,2.423-2.426,5.388-2.426,5.388l-2.442-3.556-2.137,3.285a2.684,2.684,0,0,0-.856,1.521c-.068.216-.132.45-.194.7-.043.166-.083.342-.12.517-.022.089-.04.179-.058.271l-.055.28v.043c-.037.191-.074.388-.108.588s-.074.431-.108.65q-.037.212-.065.425c-.043.274-.08.551-.117.825-.022.16-.043.308-.062.477l-.074.616c.157.505.332,1,.514,1.493a2.481,2.481,0,0,1,.2.847,21.04,21.04,0,0,0,11.562,0,.119.119,0,0,1,0-.031,3.666,3.666,0,0,1-.074-.841h0a23.093,23.093,0,0,1,.308-2.356,8.625,8.625,0,0,0,.059-1.158V703.5C337.359,703.378,337.356,703.267,337.353,703.156Zm0,0a2.121,2.121,0,0,0-.022-.369c-.022-.123-.018-.231-.034-.348s-.028-.234-.043-.351-.037-.234-.058-.351-.043-.234-.068-.351a.524.524,0,0,0-.025-.117c-.034-.154-.071-.308-.111-.465s-.065-.249-.1-.373a.525.525,0,0,0-.049-.163c-.018-.052-.052-.179-.08-.268l-.055-.172c-.025-.077-.049-.154-.077-.231-.046-.139-.1-.274-.145-.413s-.1-.274-.154-.41c-.1-.277-.219-.551-.333-.825-.446-1.065-.948-2.115-1.41-3.156a17.447,17.447,0,0,1-.659-1.672l-.059.083a3.552,3.552,0,0,0-.249.443c0,2.423-2.426,5.388-2.426,5.388l-2.442-3.556-2.137,3.285a2.684,2.684,0,0,0-.856,1.521c-.068.216-.132.45-.194.7-.043.166-.083.342-.12.517-.022.089-.04.179-.058.271l-.055.28v.043c-.037.191-.074.388-.108.588s-.074.431-.108.65q-.037.212-.065.425c-.043.274-.08.551-.117.825-.022.16-.043.308-.062.477l-.074.616c.157.505.332,1,.514,1.493a2.481,2.481,0,0,1,.2.847,21.04,21.04,0,0,0,11.562,0,.119.119,0,0,1,0-.031,3.666,3.666,0,0,1-.074-.841h0a23.093,23.093,0,0,1,.308-2.356,8.625,8.625,0,0,0,.059-1.158V703.5C337.359,703.378,337.356,703.267,337.353,703.156Zm3.264-5.779-1.1-4.388-.188-.751-.052-.206h0l-.268-1.071a.2.2,0,0,0,0-.028h0a.246.246,0,0,0-.022-.139c-.04-.08-.142-.163-.379-.185a1.912,1.912,0,0,0-.271,0h0a4.686,4.686,0,0,0-.791.148c-.126.034-.262.071-.406.117l-.265.083h-.025a5.875,5.875,0,0,0-1.94,1.078,5.233,5.233,0,0,0-.985,1.09l-.058.083a3.559,3.559,0,0,0-.249.443c0,2.423-2.426,5.388-2.426,5.388l-2.442-3.556-.139-.2-.025-.034-.354-.52-.268-.357-.071-.092-1.262-1.684h0l-.4-.545v-.019l-.139-.188-.265-.351-.924.539-2.309,1.346-1.065,6.931v.074l.031.505.228,3.858v.219l-.348,1.389a20.319,20.319,0,0,0,2.894,1.281l.262.092c.308.1.6.194.9.283a1.1,1.1,0,0,1,.025.138v-.132a21.04,21.04,0,0,0,11.562,0l.071-.022c.176-.049.354-.1.526-.16l.28-.089a20.621,20.621,0,0,0,2.229-.893h0l.256-5.505.185-3.932Zm-15.143,10.632a1.1,1.1,0,0,1,.025.138v-.132Zm11.879-4.853a2.121,2.121,0,0,0-.022-.369c-.022-.123-.018-.231-.034-.348s-.028-.234-.043-.351-.037-.234-.058-.351-.043-.234-.068-.351a.524.524,0,0,0-.025-.117c-.034-.154-.071-.308-.111-.465s-.065-.249-.1-.373a.525.525,0,0,0-.049-.163c-.018-.052-.052-.179-.08-.268l-.055-.172c-.025-.077-.049-.154-.077-.231-.046-.139-.1-.274-.145-.413s-.1-.274-.154-.41c-.1-.277-.219-.551-.333-.825-.446-1.065-.948-2.115-1.41-3.156a17.447,17.447,0,0,1-.659-1.672l-.059.083a3.552,3.552,0,0,0-.249.443c0,2.423-2.426,5.388-2.426,5.388l-2.442-3.556-2.137,3.285a2.684,2.684,0,0,0-.856,1.521c-.068.216-.132.45-.194.7-.043.166-.083.342-.12.517-.022.089-.04.179-.058.271l-.055.28v.043c-.037.191-.074.388-.108.588s-.074.431-.108.65q-.037.212-.065.425c-.043.274-.08.551-.117.825-.022.16-.043.308-.062.477l-.074.616c.157.505.332,1,.514,1.493a2.481,2.481,0,0,1,.2.847,21.04,21.04,0,0,0,11.562,0,.119.119,0,0,1,0-.031,3.666,3.666,0,0,1-.074-.841h0a23.093,23.093,0,0,1,.308-2.356,8.625,8.625,0,0,0,.059-1.158V703.5C337.359,703.378,337.356,703.267,337.353,703.156Zm0,0a2.121,2.121,0,0,0-.022-.369c-.022-.123-.018-.231-.034-.348s-.028-.234-.043-.351-.037-.234-.058-.351-.043-.234-.068-.351a.524.524,0,0,0-.025-.117c-.034-.154-.071-.308-.111-.465s-.065-.249-.1-.373a.525.525,0,0,0-.049-.163c-.018-.052-.052-.179-.08-.268l-.055-.172c-.025-.077-.049-.154-.077-.231-.046-.139-.1-.274-.145-.413s-.1-.274-.154-.41c-.1-.277-.219-.551-.333-.825-.446-1.065-.948-2.115-1.41-3.156a17.447,17.447,0,0,1-.659-1.672l-.059.083a3.552,3.552,0,0,0-.249.443c0,2.423-2.426,5.388-2.426,5.388l-2.442-3.556-2.137,3.285a2.684,2.684,0,0,0-.856,1.521c-.068.216-.132.45-.194.7-.043.166-.083.342-.12.517-.022.089-.04.179-.058.271l-.055.28v.043c-.037.191-.074.388-.108.588s-.074.431-.108.65q-.037.212-.065.425c-.043.274-.08.551-.117.825-.022.16-.043.308-.062.477l-.074.616c.157.505.332,1,.514,1.493a2.481,2.481,0,0,1,.2.847,21.04,21.04,0,0,0,11.562,0,.119.119,0,0,1,0-.031,3.666,3.666,0,0,1-.074-.841h0a23.093,23.093,0,0,1,.308-2.356,8.625,8.625,0,0,0,.059-1.158V703.5C337.359,703.378,337.356,703.267,337.353,703.156Zm0,0a2.121,2.121,0,0,0-.022-.369c-.022-.123-.018-.231-.034-.348s-.028-.234-.043-.351-.037-.234-.058-.351-.043-.234-.068-.351a.524.524,0,0,0-.025-.117c-.034-.154-.071-.308-.111-.465s-.065-.249-.1-.373a.525.525,0,0,0-.049-.163c-.018-.052-.052-.179-.08-.268l-.055-.172c-.025-.077-.049-.154-.077-.231-.046-.139-.1-.274-.145-.413s-.1-.274-.154-.41c-.1-.277-.219-.551-.333-.825-.446-1.065-.948-2.115-1.41-3.156a17.447,17.447,0,0,1-.659-1.672l-.059.083a3.552,3.552,0,0,0-.249.443c0,2.423-2.426,5.388-2.426,5.388l-2.442-3.556-2.137,3.285a2.684,2.684,0,0,0-.856,1.521c-.068.216-.132.45-.194.7-.043.166-.083.342-.12.517-.022.089-.04.179-.058.271l-.055.28v.043c-.037.191-.074.388-.108.588s-.074.431-.108.65q-.037.212-.065.425c-.043.274-.08.551-.117.825-.022.16-.043.308-.062.477l-.074.616c.157.505.332,1,.514,1.493a2.481,2.481,0,0,1,.2.847,21.04,21.04,0,0,0,11.562,0,.119.119,0,0,1,0-.031,3.666,3.666,0,0,1-.074-.841h0a23.093,23.093,0,0,1,.308-2.356,8.625,8.625,0,0,0,.059-1.158V703.5C337.359,703.378,337.356,703.267,337.353,703.156Zm0,0a2.121,2.121,0,0,0-.022-.369c-.022-.123-.018-.231-.034-.348s-.028-.234-.043-.351-.037-.234-.058-.351-.043-.234-.068-.351a.524.524,0,0,0-.025-.117c-.034-.154-.071-.308-.111-.465s-.065-.249-.1-.373a.525.525,0,0,0-.049-.163c-.018-.052-.052-.179-.08-.268l-.055-.172c-.025-.077-.049-.154-.077-.231-.046-.139-.1-.274-.145-.413s-.1-.274-.154-.41c-.1-.277-.219-.551-.333-.825-.446-1.065-.948-2.115-1.41-3.156a17.447,17.447,0,0,1-.659-1.672l-.059.083a3.552,3.552,0,0,0-.249.443c0,2.423-2.426,5.388-2.426,5.388l-2.442-3.556-2.137,3.285a2.684,2.684,0,0,0-.856,1.521c-.068.216-.132.45-.194.7-.043.166-.083.342-.12.517-.022.089-.04.179-.058.271l-.055.28v.043c-.037.191-.074.388-.108.588s-.074.431-.108.65q-.037.212-.065.425c-.043.274-.08.551-.117.825-.022.16-.043.308-.062.477l-.074.616c.157.505.332,1,.514,1.493a2.481,2.481,0,0,1,.2.847,21.04,21.04,0,0,0,11.562,0,.119.119,0,0,1,0-.031,3.666,3.666,0,0,1-.074-.841h0a23.093,23.093,0,0,1,.308-2.356,8.625,8.625,0,0,0,.059-1.158V703.5C337.359,703.378,337.356,703.267,337.353,703.156Zm0,0a2.121,2.121,0,0,0-.022-.369c-.022-.123-.018-.231-.034-.348s-.028-.234-.043-.351-.037-.234-.058-.351-.043-.234-.068-.351a.524.524,0,0,0-.025-.117c-.034-.154-.071-.308-.111-.465s-.065-.249-.1-.373a.525.525,0,0,0-.049-.163c-.018-.052-.052-.179-.08-.268l-.055-.172c-.025-.077-.049-.154-.077-.231-.046-.139-.1-.274-.145-.413s-.1-.274-.154-.41c-.1-.277-.219-.551-.333-.825-.446-1.065-.948-2.115-1.41-3.156a17.447,17.447,0,0,1-.659-1.672l-.059.083a3.552,3.552,0,0,0-.249.443c0,2.423-2.426,5.388-2.426,5.388l-2.442-3.556-2.137,3.285a2.684,2.684,0,0,0-.856,1.521c-.068.216-.132.45-.194.7-.043.166-.083.342-.12.517-.022.089-.04.179-.058.271l-.055.28v.043c-.037.191-.074.388-.108.588s-.074.431-.108.65q-.037.212-.065.425c-.043.274-.08.551-.117.825-.022.16-.043.308-.062.477l-.074.616c.157.505.332,1,.514,1.493a2.481,2.481,0,0,1,.2.847,21.04,21.04,0,0,0,11.562,0,.119.119,0,0,1,0-.031,3.666,3.666,0,0,1-.074-.841h0a23.093,23.093,0,0,1,.308-2.356,8.625,8.625,0,0,0,.059-1.158V703.5C337.359,703.378,337.356,703.267,337.353,703.156Zm0,0a2.121,2.121,0,0,0-.022-.369c-.022-.123-.018-.231-.034-.348s-.028-.234-.043-.351-.037-.234-.058-.351-.043-.234-.068-.351a.524.524,0,0,0-.025-.117c-.034-.154-.071-.308-.111-.465s-.065-.249-.1-.373a.525.525,0,0,0-.049-.163c-.018-.052-.052-.179-.08-.268l-.055-.172c-.025-.077-.049-.154-.077-.231-.046-.139-.1-.274-.145-.413s-.1-.274-.154-.41c-.1-.277-.219-.551-.333-.825-.446-1.065-.948-2.115-1.41-3.156a17.447,17.447,0,0,1-.659-1.672l-.059.083a3.552,3.552,0,0,0-.249.443c0,2.423-2.426,5.388-2.426,5.388l-2.442-3.556-2.137,3.285a2.684,2.684,0,0,0-.856,1.521c-.068.216-.132.45-.194.7-.043.166-.083.342-.12.517-.022.089-.04.179-.058.271l-.055.28v.043c-.037.191-.074.388-.108.588s-.074.431-.108.65q-.037.212-.065.425c-.043.274-.08.551-.117.825-.022.16-.043.308-.062.477l-.074.616c.157.505.332,1,.514,1.493a2.481,2.481,0,0,1,.2.847,21.04,21.04,0,0,0,11.562,0,.119.119,0,0,1,0-.031,3.666,3.666,0,0,1-.074-.841h0a23.093,23.093,0,0,1,.308-2.356,8.625,8.625,0,0,0,.059-1.158V703.5C337.359,703.378,337.356,703.267,337.353,703.156Zm0,0a2.121,2.121,0,0,0-.022-.369c-.022-.123-.018-.231-.034-.348s-.028-.234-.043-.351-.037-.234-.058-.351-.043-.234-.068-.351a.524.524,0,0,0-.025-.117c-.034-.154-.071-.308-.111-.465s-.065-.249-.1-.373a.525.525,0,0,0-.049-.163c-.018-.052-.052-.179-.08-.268l-.055-.172c-.025-.077-.049-.154-.077-.231-.046-.139-.1-.274-.145-.413s-.1-.274-.154-.41c-.1-.277-.219-.551-.333-.825-.446-1.065-.948-2.115-1.41-3.156a17.447,17.447,0,0,1-.659-1.672l-.059.083a3.552,3.552,0,0,0-.249.443c0,2.423-2.426,5.388-2.426,5.388l-2.442-3.556-2.137,3.285a2.684,2.684,0,0,0-.856,1.521c-.068.216-.132.45-.194.7-.043.166-.083.342-.12.517-.022.089-.04.179-.058.271l-.055.28v.043c-.037.191-.074.388-.108.588s-.074.431-.108.65q-.037.212-.065.425c-.043.274-.08.551-.117.825-.022.16-.043.308-.062.477l-.074.616c.157.505.332,1,.514,1.493a2.481,2.481,0,0,1,.2.847,21.04,21.04,0,0,0,11.562,0,.119.119,0,0,1,0-.031,3.666,3.666,0,0,1-.074-.841h0a23.093,23.093,0,0,1,.308-2.356,8.625,8.625,0,0,0,.059-1.158V703.5C337.359,703.378,337.356,703.267,337.353,703.156Zm0,0a2.121,2.121,0,0,0-.022-.369c-.022-.123-.018-.231-.034-.348s-.028-.234-.043-.351-.037-.234-.058-.351-.043-.234-.068-.351a.524.524,0,0,0-.025-.117c-.034-.154-.071-.308-.111-.465s-.065-.249-.1-.373a.525.525,0,0,0-.049-.163c-.018-.052-.052-.179-.08-.268l-.055-.172c-.025-.077-.049-.154-.077-.231-.046-.139-.1-.274-.145-.413s-.1-.274-.154-.41c-.1-.277-.219-.551-.333-.825-.446-1.065-.948-2.115-1.41-3.156a17.447,17.447,0,0,1-.659-1.672l-.059.083a3.552,3.552,0,0,0-.249.443c0,2.423-2.426,5.388-2.426,5.388l-2.442-3.556-2.137,3.285a2.684,2.684,0,0,0-.856,1.521c-.068.216-.132.45-.194.7-.043.166-.083.342-.12.517-.022.089-.04.179-.058.271l-.055.28v.043c-.037.191-.074.388-.108.588s-.074.431-.108.65q-.037.212-.065.425c-.043.274-.08.551-.117.825-.022.16-.043.308-.062.477l-.074.616c.157.505.332,1,.514,1.493a2.481,2.481,0,0,1,.2.847,21.04,21.04,0,0,0,11.562,0,.119.119,0,0,1,0-.031,3.666,3.666,0,0,1-.074-.841h0a23.093,23.093,0,0,1,.308-2.356,8.625,8.625,0,0,0,.059-1.158V703.5C337.359,703.378,337.356,703.267,337.353,703.156Z" transform="translate(-310.368 -666.955)"/><path class="f" d="M315.148,695.451l-.206-.028a7.5,7.5,0,0,1-.924-.185l-.114-.031c-.751-.213-1.573-.594-1.758-1.266a1.2,1.2,0,0,1,.019-.656,5.619,5.619,0,0,1,.419-1.059v-.018a1.493,1.493,0,0,1,.077-.139,3.079,3.079,0,0,1,1.112-1.21l-.37.058-3.128.508-4.849.782s-.862-.172-2.035,3.061a.5.5,0,0,1-.04.12c-.283.791-.582,1.78-.89,3.014-.212.856-.406,1.7-.585,2.513-.052.246-.1.489-.154.73a19.547,19.547,0,0,0,1.789,1.847l.1.1a21.011,21.011,0,0,0,4.1,2.9l.059.031a20.305,20.305,0,0,0,2.894,1.281l.262.092c.055-.57.117-1.2.191-1.847a.526.526,0,0,1,.025-.194l.074-.616c.018-.157.04-.308.062-.477.037-.274.074-.551.117-.825q.028-.212.065-.425c.034-.219.071-.437.108-.65s.071-.4.108-.588v-.043l.055-.28c.018-.092.037-.182.058-.271.037-.176.077-.351.12-.517.062-.25.126-.484.194-.7a2.631,2.631,0,0,1,.856-1.521l2.137-3.285.089-.139.04-.062Z" transform="translate(-296.72 -667.132)"/><path class="q" d="M314.482,695.471l-2.269,3.485a2.6,2.6,0,0,0-.841,1.475c-.071.228-.142.477-.209.739a36.836,36.836,0,0,0-.7,4.03.48.48,0,0,1-.025.185c-.1.856-.191,1.7-.262,2.439a20.291,20.291,0,0,1-2.894-1.281l-.058-.031a21.011,21.011,0,0,1-4.1-2.9l-.1-.1a19.56,19.56,0,0,1-1.789-1.847c-.074-.083-.145-.169-.216-.256.034-.16.068-.308.1-.48.176-.816.37-1.654.582-2.506a30.34,30.34,0,0,1,1.047-3.448.928.928,0,0,1,.04-.1c1.09-2.805,1.875-2.648,1.875-2.648l5.12-.825,3.233-.524-.1.059a3.279,3.279,0,0,0-.89.948l-.089.151c-.037.059-.071.123-.108.188a5.45,5.45,0,0,0-.425,1.078,1.133,1.133,0,0,0,.074.881,2.933,2.933,0,0,0,1.9,1.1l.12.031A7.733,7.733,0,0,0,314.482,695.471Z" transform="translate(-296.235 -667.146)"/><path class="f" d="M381.061,699.929l-.126-2.734c.539-4.311-.539-4.579-.539-4.579L379.115,692h-.034l-5.151-2.5-.2-.1-.062-.028h0l-.671-.326h0l-.425-.206-.794-.385-.268-.129V689.4c0,.308.028.668.052,1.087.055,1.053.157,2.463.339,4.126.1.964.231,2.017.391,3.147.1.668.163,1.333.206,1.983a34.89,34.89,0,0,1-.2,6.558l.28-.089a20.644,20.644,0,0,0,2.229-.893h0a20.466,20.466,0,0,0,3.972-2.439l.055-.04a20.55,20.55,0,0,0,2.235-2.029Z" transform="translate(-345.021 -665.381)"/><path class="q" d="M381.927,699.894l-.126-2.74c.539-4.311-.539-4.579-.539-4.579l-1.539-.745h-.031l-5.167-2.506-.237-.114-.046-.022-.379-.185-.5-.243-.991-.48v.437h0v.542c0,.308.028.711.055,1.17.052.982.145,2.269.308,3.8.111,1.05.249,2.217.431,3.473q.142,1.007.2,1.992a34.854,34.854,0,0,1-.191,6.466,20.849,20.849,0,0,0,6.2-3.331l.055-.04a20.538,20.538,0,0,0,2.235-2.029q.135-.135.259-.277Z" transform="translate(-345.616 -665.346)"/><path class="f" d="M334.975,639.919a7.7,7.7,0,0,1,2.882-.308,9.442,9.442,0,0,1,2.2,1.068,5.7,5.7,0,0,0,2.272.6,1.337,1.337,0,0,0,.834-.163,1.294,1.294,0,0,0,.373-1.269,7.284,7.284,0,0,0-1.847-3.461,6.777,6.777,0,0,0-1.158-1.173,6.116,6.116,0,0,0-3.938-.893,9.867,9.867,0,0,0-4.511,1.158c-.924.53-3.042,2.2-2.306,3.406C330.55,640.147,333.765,640.125,334.975,639.919Z" transform="translate(-316.032 -627.993)"/><path class="o" d="M334.975,638.919a7.705,7.705,0,0,1,2.882-.308,9.447,9.447,0,0,1,2.2,1.068,5.7,5.7,0,0,0,2.272.6,1.337,1.337,0,0,0,.834-.163,1.294,1.294,0,0,0,.373-1.269,7.284,7.284,0,0,0-1.847-3.461,6.771,6.771,0,0,0-1.158-1.173,6.114,6.114,0,0,0-3.938-.893,9.864,9.864,0,0,0-4.511,1.158c-.924.53-3.042,2.2-2.306,3.405C330.55,639.147,333.765,639.125,334.975,638.919Z" transform="translate(-316.032 -627.301)"/></g><path class="r" d="M619.9,410.392h.046c.068,2.063.36,3.929.924,4.446,1.343,1.232,6.909-1.232,6.528-2.722-.077-.308-.206-.813-.369-1.45,1.5-.188,2.786-.616,3.3-1.5l.967,2.981.068.212h.074c.637,6.041,2.081,18.585,3.236,20.266,1.54,2.226,3.31,11.873,3.31,11.873l3.31,19.789s1.275,11.392,2.038,12.624a1.432,1.432,0,0,0,.837.434,12.128,12.128,0,0,1-1.847,3.769c-1.539,1.73-3.566,5.194-5.348,4.948s-2.291,3.464,1.019,3.957a27.364,27.364,0,0,0,7-.409A2.5,2.5,0,0,0,647.412,492c3.31.5,10.186-.988,10.186-.988s5.85-2.463,6.112-4.206c.185-1.262-.711-6.331-1.21-8.988.924-1.481-.062-14.262-.062-14.262l-1.783-24.488s1.019-13.6,0-16.079c-.637-1.54-.875-8.621-.964-13.686l1.232.08a2.283,2.283,0,0,0,.191-.268l.308.022a4.091,4.091,0,0,0,.256-4.452c-.945-2.023-.767-11.155-.616-15.7h0l.182-2.155a.616.616,0,0,0,.151-.234,22.583,22.583,0,0,0,6.875-2.081,6.977,6.977,0,0,0,1.8-1.1c1.275-1.232.508-8.658-2.038-19.789s-4.837-10.142-4.837-10.142-6.112-.5-8.914-4.206-4.683-3.661-4.683-3.661h0c-.071-.486-.12-.945-.154-1.373,0-.16-.025-.308-.034-.468a8.14,8.14,0,0,0,2.118-3.211,15.921,15.921,0,0,0,1.826-.8,2.184,2.184,0,0,0,.379-.351,3.113,3.113,0,0,0,.982-1.937,7.921,7.921,0,0,0-.114-2.429,5.887,5.887,0,0,0-3.886-5.333q-4.04-2.122-8.1-4.2a4.47,4.47,0,0,0-1.734-.616,4.62,4.62,0,0,0-2.931,1.386,12.512,12.512,0,0,0-1,.878,5.621,5.621,0,0,0-.736.791,7.589,7.589,0,0,0-1.007,5.662.776.776,0,0,0,.822.693,7.938,7.938,0,0,0-.847,3.572,8.1,8.1,0,0,0,3.759,6.8c0,.172,0,.342.015.5a18.055,18.055,0,0,1-.062,1.894s-6.774,3.661-7.534,5.391-3.566,2.968-3.566,2.968-5.348,2.722-5.348,12.369l-2.8,13.6-.508,25.972s.351-.308.924-.745c-.018.172-.034.351-.049.533a29.335,29.335,0,0,0-.077,2.984Zm34.208,67.219c-.1.4-.259.924-.453,1.54-.086-.511-.172-1.016-.259-1.5C653.619,477.633,653.856,477.621,654.109,477.611Z" transform="translate(-441.804 -232.211)"/><path class="s" d="M682.558,808.856s-.982,4.415-2.463,6.13-3.421,5.151-5.133,4.905-2.208,3.433.982,3.923,9.794-.979,9.794-.979,5.641-2.463,5.884-4.169-1.472-10.546-1.472-10.546Z" transform="translate(-479.503 -566.645)"/><path class="t" d="M682.558,808.856s-.982,4.415-2.463,6.13-3.421,5.151-5.133,4.905-2.208,3.433.982,3.923,9.794-.979,9.794-.979,5.641-2.463,5.884-4.169-1.472-10.546-1.472-10.546Z" transform="translate(-479.503 -566.645)"/><path class="s" d="M712.017,815.219s-.982,4.415-2.463,6.13-3.43,5.151-5.139,4.9-2.208,3.433.982,3.923,9.81-.982,9.81-.982,5.641-2.463,5.884-4.169-1.472-10.546-1.472-10.546Z" transform="translate(-499.888 -571.047)"/><path class="e" d="M659.66,598.67s1.961,21.088,3.433,23.3,3.187,11.771,3.187,11.771l3.187,19.617s1.232,11.282,1.961,12.507,9.832.7,9.832.7l-5.659-64.95Z" transform="translate(-469.848 -421.686)"/><path class="t" d="M659.66,598.67s1.961,21.088,3.433,23.3,3.187,11.771,3.187,11.771l3.187,19.617s1.232,11.282,1.961,12.507,9.832.7,9.832.7l-5.659-64.95Z" transform="translate(-469.848 -421.686)"/><path class="e" d="M646.92,566l.641,2.035,3.464,11,.068.209h.018c.465.1,10.281,2.362,12.4,3.054a3,3,0,0,1,.336.126c.982.49,2.208,18.145,2.208,18.145s.736,16.676,1.231,17.9,2.463,26.48,3.68,25.747,10.053,0,10.053,0c.982-.982,0-14.222,0-14.222l-1.743-24.272s.982-13.486,0-15.94-.982-18.881-.982-18.881l-20.073-3.138-1.94-.308Z" transform="translate(-461.03 -399.075)"/><path class="u" d="M649,571.063l3.464,11,.083.216c.465.1,10.281,2.362,12.4,3.054h.212l-5.484-14.539-.157-.419-1.783.114Z" transform="translate(-462.47 -402.1)"/><path class="f" d="M673.217,406.73s-9.074,9.81-14.715,1.715l-5.395,3.679.982,5.641-3.19,42.667s8.338-.246,14.222,1.715a9.126,9.126,0,0,0,9.564-2.208l-.97-37.515,2.208-11.525Z" transform="translate(-463.785 -288.846)"/><path class="v" d="M673.217,404.34s-9.074,9.81-14.715,1.715l-5.395,3.679.982,5.641-3.19,42.667s8.338-.246,14.222,1.715a9.126,9.126,0,0,0,9.564-2.208l-.97-37.515,2.208-11.525Z" transform="translate(-463.785 -287.192)"/><g transform="translate(188.457 159.824)"><path class="w" d="M615.08,522.36v1.546h-.493v-1.028h-1.8v1.028h-.5v-1.543l2.79,0" transform="translate(-612.219 -521.35)"/><path class="w" d="M657.68,543.451h-1.9a.7.7,0,0,1-.517-.511h2.934a.7.7,0,0,1-.517.511" transform="translate(-655.26 -542.94)"/><g transform="translate(16.418 0.018)"><path class="w" d="M711.788,543a.711.711,0,0,1-.514.508h-.8l-.04.015v2.02h-.493v-2.02l-.046-.015h-.8a.721.721,0,0,1-.514-.508h3.208" transform="translate(-708.58 -543)"/></g></g><path class="x" d="M636.145,569.2s0,6.377-1.472,9.074-10.053,1.232-10.053,1.232l1.715-9.074Z" transform="translate(-445.597 -401.29)"/><path class="y" d="M625.622,591.214c1.293,1.232,6.654-1.232,6.284-2.7-.259-1.038-1.164-4.751-1.678-6.857l-.357-1.481s-3.141-.982-4.249,0c-.4.357-.687,1.764-.819,3.464C624.575,586.6,624.806,590.432,625.622,591.214Z" transform="translate(-445.666 -408.586)"/><path class="y" d="M666,381.255l8.582,6.62s12.75-.736,9.563-6.866a22.859,22.859,0,0,1-2.463-8.665,18.119,18.119,0,0,1,0-3.353s-11.771-10.777-10.3,1.472a27.791,27.791,0,0,1,.2,2.833C671.761,382.49,666,381.255,666,381.255Z" transform="translate(-474.236 -259.695)"/><path class="f" d="M683.274,370.461a27.773,27.773,0,0,1,.2,2.833,8.036,8.036,0,0,0,4.455,1.336c2.2,0,3.812-2.137,5.271-3.556-.163-2.035.366-2.085.366-2.085S681.8,358.2,683.274,370.461Z" transform="translate(-486.102 -259.689)"/><circle class="y" cx="8.092" cy="8.092" r="8.092" transform="translate(193.738 98.267)"/><path class="f" d="M702.578,394.38s1.349.123,4.046,3.8,8.581,4.169,8.581,4.169,2.208-.982,4.659,10.053,3.187,18.391,1.961,19.617-6.13,2.947-8.594,2.947c0,0-.736,15.448.49,18.145a4.18,4.18,0,0,1-.246,4.415L702.7,456.79a25.646,25.646,0,0,1-4.415-12.75c-.736-8.092-3.187-31.145-1.961-33.842s6.62-9.564,6.377-10.3A44.288,44.288,0,0,1,702.578,394.38Z" transform="translate(-494.988 -280.298)"/><path class="x" d="M703.721,394.14s1.814-.049,4.511,3.63,8.578,4.169,8.578,4.169,2.208-.982,4.659,10.053,3.187,18.391,1.962,19.617-6.131,2.944-8.581,2.944c0,0-.736,15.448.49,18.145a4.18,4.18,0,0,1-.246,4.415l-10.777-.736a25.647,25.647,0,0,1-4.415-12.75c-.736-8.092-3.193-31.142-1.968-33.827s6.62-9.564,6.377-10.3S703.721,394.14,703.721,394.14Z" transform="translate(-496.103 -280.132)"/><path class="f" d="M625,583.633c1.173-.9,3.387-2.291,5.425-1.983l-.357-1.481s-3.141-.982-4.249,0C625.41,580.526,625.129,581.93,625,583.633Z" transform="translate(-445.86 -408.579)"/><path class="f" d="M642.938,399.16s-6.254,4.046-6.989,5.764-3.433,2.944-3.433,2.944-5.148,2.7-5.148,12.261l-2.7,13.486,12.261,17.166s1.472-17.166,2.208-21.335,1.715-12.008,1.715-12.008,3.68-4.659,3.187-5.884S642.938,399.16,642.938,399.16Z" transform="translate(-445.631 -283.607)"/><path class="x" d="M641.242,398.92s-6.521,3.63-7.254,5.345-3.433,2.944-3.433,2.944-5.148,2.7-5.148,12.261l-2.7,13.486-.49,25.747s4.415-4.169,7.6-2.208,5.148-6.377,5.148-6.377,1.472-17.166,2.208-21.335,1.715-12.008,1.715-12.008,3.679-4.659,3.187-5.884S641.242,398.92,641.242,398.92Z" transform="translate(-443.936 -283.441)"/><path class="f" d="M673.072,331.065a8.006,8.006,0,0,1,1.429-1.41,4.377,4.377,0,0,1,2.824-1.373,4.223,4.223,0,0,1,1.669.6q3.91,2.06,7.8,4.163a7.253,7.253,0,0,1,2.614,2,7.692,7.692,0,0,1,1.127,3.295,8.074,8.074,0,0,1,.111,2.408,3.02,3.02,0,0,1-1.065,2.023c-.7.508-1.657.511-2.242,1.176a6.548,6.548,0,0,0-.727,1.392c-.24.468-.656.924-1.13.841a1.187,1.187,0,0,1-.828-1.093,6.638,6.638,0,0,1,.089-1.54,3.646,3.646,0,0,0-.56-2.59c-.37-.468-.9-.751-1.256-1.232-.856-1.158-.465-3.079-1.4-4.166a2.226,2.226,0,0,0-2.155-.616,9.211,9.211,0,0,0-2.155.924A16.016,16.016,0,0,1,674.258,337c-.856.234-1.847.794-2.14-.345A7.593,7.593,0,0,1,673.072,331.065Z" transform="translate(-478.346 -234.55)"/><path class="z" d="M673.869,330.275a8.01,8.01,0,0,1,1.429-1.41,4.377,4.377,0,0,1,2.823-1.373,4.226,4.226,0,0,1,1.669.6c2.6,1.373,4.769.074,7.8,4.163.647.874,1.946,1.065,2.614,2a7.692,7.692,0,0,1,1.127,3.295,8.076,8.076,0,0,1,.111,2.408,3.02,3.02,0,0,1-1.065,2.023c-.7.508-1.656.511-2.242,1.176a6.556,6.556,0,0,0-.727,1.392c-.24.468-.656.924-1.13.841a1.186,1.186,0,0,1-.828-1.093,6.642,6.642,0,0,1,.089-1.54,3.646,3.646,0,0,0-.56-2.589c-.37-.468-.9-.751-1.256-1.232-.856-1.158-.465-3.079-1.4-4.166a2.226,2.226,0,0,0-2.155-.616,9.208,9.208,0,0,0-2.155.924,16.012,16.012,0,0,1-2.953,1.139c-.856.234-1.847.794-2.14-.345A7.574,7.574,0,0,1,673.869,330.275Z" transform="translate(-478.897 -234.003)"/><path class="f" d="M737.909,458.09s3.27,8.338.816,11.771l-5.395-1.232s4.9,1.472,4.169-1.472S737.909,458.09,737.909,458.09Z" transform="translate(-520.834 -324.392)"/><path class="f" d="M733.6,522.792s-7.113.49-9.074-.982a18.782,18.782,0,0,0,8.852,3.68Z" transform="translate(-514.744 -368.492)"/><path class="f" d="M646.746,474s-3.68,11.282-3.433,13,.736,20.6.736,20.6l.736-.246-.246-20.6Z" transform="translate(-458.526 -335.403)"/><path class="aa" d="M368.283,197.614l-84.059-67.74a5.259,5.259,0,0,0-3.726-1.54h-3.572a45.57,45.57,0,1,0-7.892,7.892V139.8a5.259,5.259,0,0,0,1.54,3.726l84.059,67.739a5.234,5.234,0,0,0,7.433,0l6.2-6.189A5.287,5.287,0,0,0,368.283,197.614Zm-127.31-69.279a11.624,11.624,0,1,1,0,.006Z" transform="translate(-148.558 -45.229)"/><path class="ab" d="M370.283,195.614l-84.059-67.739a5.259,5.259,0,0,0-3.726-1.54h-3.572a45.57,45.57,0,1,0-7.892,7.892V137.8a5.259,5.259,0,0,0,1.539,3.726l84.059,67.739a5.234,5.234,0,0,0,7.433,0l6.2-6.189A5.287,5.287,0,0,0,370.283,195.614Zm-127.31-69.279a11.624,11.624,0,1,1,0,.006Z" transform="translate(-149.942 -43.845)"/><path class="y" d="M714.433,479.187s-12.27-14.071-10.546-4.415c1.232,6.866,5.884,10.546,8.092,11.282S714.433,479.187,714.433,479.187Z" transform="translate(-500.342 -333.594)"/><path class="x" d="M729.882,454.51s.246,9.074,1.472,10.3-.736,2.7-.736,2.7l-4.905-1.232s1.232,8.092-3.923,7.113c0,0,3.433,3.187,6.866,3.679s3.187-.736,3.187-.736l5.148-6.13Z" transform="translate(-512.848 -321.914)"/><path class="x" d="M703.051,491.569l4.976-1.093-.665-2.294-3.079-1.232-4,1.847Z" transform="translate(-484.659 -337.019)"/><path class="i" d="M280.78,152.747a20.839,20.839,0,0,0,4.181,12.556c.274.366.56.72.859,1.068.16.188.326.373.5.554q.126.142.259.277a20.543,20.543,0,0,0,2.235,2.029l.055.04a20.846,20.846,0,0,0,6.2,3.332l.28.089c.172.059.351.111.527.16l.071.022c.089.025.179.052.271.074a20.848,20.848,0,0,0,5.49.73c.308,0,.631,0,.945-.022a20.705,20.705,0,0,0,4.856-.794h.031c.293-.086.582-.175.868-.274h.031l.262-.092a20.3,20.3,0,0,0,2.894-1.281l.059-.031.308-.169a20.882,20.882,0,0,0,3.8-2.734l.1-.1a19.562,19.562,0,0,0,1.789-1.847l.065-.077c.052-.059.1-.117.151-.179.136-.16.265-.326.394-.493a20.938,20.938,0,1,0-37.478-12.843Z" transform="translate(-207.627 -98.578)"/><path class="ac" d="M297.465,169.985s4.542-.385,6.623-3.273c2.029-2.811,3.409-2.845,3.476-2.845h0c.052-.376.089-.733.114-1.065v-.046a.616.616,0,0,1-.286.126c-.406.062-.764-.323-.967-.733a5.717,5.717,0,0,0-.616-1.213c-.5-.579-1.324-.582-1.921-1.022a2.642,2.642,0,0,1-.924-1.761,4.843,4.843,0,0,1-.037-.77,8.524,8.524,0,0,1,.129-1.641,6.759,6.759,0,0,1,.967-2.867c.57-.8,1.684-.976,2.238-1.737,2.6-3.559,4.446-2.429,6.679-3.624a3.578,3.578,0,0,1,1.429-.52,3.736,3.736,0,0,1,2.417,1.2,6.9,6.9,0,0,1,1.232,1.232,6.682,6.682,0,0,1,.973,3.738,5.6,5.6,0,0,1-.142,1.463c-.179.708-.662.662-1.192.5a6.4,6.4,0,0,1-2.174,8.03v.323a.583.583,0,0,0,0,.071,14.587,14.587,0,0,0,.049,1.472c.052.028,5.031,2.851,5.595,4.191s2.651,2.309,2.651,2.309,2.294,1.232,3.387,5.1l-.065.077a19.749,19.749,0,0,1-1.789,1.884l-.1.1a20.9,20.9,0,0,1-3.8,2.771c-.1.059-.2.117-.308.172l-.058.031a20.136,20.136,0,0,1-2.894,1.3l-.262.1h-.031c-.286.1-.576.191-.868.277h-.031a20.39,20.39,0,0,1-4.856.807c-.308.015-.616.022-.945.022a20.524,20.524,0,0,1-5.475-.711c-.092-.022-.182-.049-.271-.074l-.071-.022c-.176-.049-.354-.1-.527-.163l-.28-.089a20.759,20.759,0,0,1-6.21-3.39l-.055-.04a20.665,20.665,0,0,1-2.235-2.063q-.132-.135-.259-.283c-.169-.185-.336-.373-.5-.563-.308-.354-.585-.714-.859-1.087C296.067,169.35,297.465,169.985,297.465,169.985Z" transform="translate(-217.068 -109.082)"/><path class="y" d="M337.849,198.051l6.623-5.108s-4.437.951-4.311-6.14a.527.527,0,0,1,0-.071,18.135,18.135,0,0,1,.154-2.115c1.136-9.462-7.947-1.136-7.947-1.136a13.542,13.542,0,0,1,0,2.519v.068a17.593,17.593,0,0,1-1.891,6.685C328.012,197.481,337.849,198.051,337.849,198.051Z" transform="translate(-241.749 -131.993)"/><path class="f" d="M338.343,184.684c1.124,1.093,1.81,3.079,3.5,3.079a6.2,6.2,0,0,0,3.439-1.032,18.147,18.147,0,0,1,.154-2.115c1.136-9.462-7.947-1.136-7.947-1.136S338.463,183.145,338.343,184.684Z" transform="translate(-246.876 -131.993)"/><circle class="y" cx="6.244" cy="6.244" r="6.244" transform="translate(88.723 42.974)"/><path class="f" d="M337.153,152.386a6.856,6.856,0,0,0-1.232-1.207A3.734,3.734,0,0,0,333.5,150a3.618,3.618,0,0,0-1.429.511c-2.232,1.176-4.083.065-6.678,3.562-.554.748-1.666.924-2.239,1.709a6.55,6.55,0,0,0-.967,2.82,6.917,6.917,0,0,0-.1,2.063,2.583,2.583,0,0,0,.924,1.73c.6.434,1.419.437,1.921,1.007a5.587,5.587,0,0,1,.616,1.192c.2.4.56.779.967.721a1,1,0,0,0,.708-.924,5.677,5.677,0,0,0-.077-1.315,3.145,3.145,0,0,1,.48-2.217c.308-.4.77-.644,1.075-1.053.733-.988.4-2.648,1.2-3.566a1.906,1.906,0,0,1,1.847-.514,7.874,7.874,0,0,1,1.847.794,13.708,13.708,0,0,0,2.528.976c.733.2,1.583.68,1.832-.308A6.507,6.507,0,0,0,337.153,152.386Z" transform="translate(-236.197 -111.164)"/><path class="z" d="M337.153,151.386a6.856,6.856,0,0,0-1.232-1.207A3.734,3.734,0,0,0,333.5,149a3.618,3.618,0,0,0-1.429.511c-2.232,1.176-4.083.065-6.678,3.562-.554.748-1.666.924-2.239,1.709a6.55,6.55,0,0,0-.967,2.82,6.917,6.917,0,0,0-.1,2.063,2.583,2.583,0,0,0,.924,1.73c.6.434,1.419.437,1.921,1.007a5.587,5.587,0,0,1,.616,1.192c.2.4.56.779.967.721a1,1,0,0,0,.708-.924,5.677,5.677,0,0,0-.077-1.315,3.145,3.145,0,0,1,.48-2.217c.308-.4.77-.643,1.075-1.053.733-.988.4-2.648,1.2-3.566a1.906,1.906,0,0,1,1.847-.514,7.872,7.872,0,0,1,1.847.794,13.708,13.708,0,0,0,2.528.976c.733.2,1.583.68,1.832-.308A6.508,6.508,0,0,0,337.153,151.386Z" transform="translate(-236.197 -110.472)"/><path class="f" d="M327.543,221.867l-.123,4.726a20.847,20.847,0,0,0,5.49.73c.308,0,.631,0,.945-.022a20.7,20.7,0,0,0,4.856-.794h.031c.293-.086.582-.176.868-.274h.031l.262-.092a20.3,20.3,0,0,0,2.894-1.281l.058-.031.308-.169-.477-6.371.76-4.369-4.163-2.836a7.336,7.336,0,0,1-.782.948,5.233,5.233,0,0,1-1.423,1.053c-2.987,1.472-6.386-.868-8.076-2.315l-.385-.342c-.437-.4-.687-.668-.687-.668l-2.081,3.215Z" transform="translate(-238.82 -152.524)"/><path class="ad" d="M327.543,222.867l-.123,4.726a20.847,20.847,0,0,0,5.49.73c.308,0,.631,0,.945-.022a20.7,20.7,0,0,0,4.856-.794h.031c.293-.086.582-.176.868-.274h.031l.262-.092a20.3,20.3,0,0,0,2.894-1.281l.058-.031.308-.169-.477-6.371.76-4.369-4.163-2.836a7.331,7.331,0,0,1-.782.948,5.233,5.233,0,0,1-1.423,1.053c-2.987,1.472-6.386-.868-8.076-2.315l-.385-.342c-.437-.4-.687-.668-.687-.668l-2.081,3.215Z" transform="translate(-238.82 -153.216)"/><path class="ae" d="M294.36,214.481c.274.366.56.72.859,1.068.16.188.326.373.5.554q.126.142.259.277a20.542,20.542,0,0,0,2.235,2.029l.055.04a20.848,20.848,0,0,0,6.2,3.332l.28.089c.172.059.351.111.526.16l.071.022c.089.025.179.052.271.074a20.849,20.849,0,0,0,5.49.73c.308,0,.631,0,.945-.022.24-3.929.308-7.082-.068-7.892a12.713,12.713,0,0,0-.761-1.361c-1.521-2.445-4.311-6.121-4.16-6.586a4.837,4.837,0,0,0,.126-.693c.163-1.213.326-3.433.326-3.433h0c-.068,0-1.447.034-3.476,2.8-2.081,2.839-6.623,3.218-6.623,3.218S296.026,208.271,294.36,214.481Z" transform="translate(-217.026 -147.756)"/><path class="ae" d="M363.252,220.387s.228,1.814.527,3.981h.031l.262-.092A20.3,20.3,0,0,0,366.965,223l.059-.031.308-.169a20.887,20.887,0,0,0,3.8-2.734l.1-.1a19.562,19.562,0,0,0,1.789-1.847l.065-.077c-1.1-3.815-3.387-5.016-3.387-5.016s-2.081-.948-2.651-2.272-5.6-4.123-5.6-4.123v.022c0,.237-.08,2.408-.2,4.591-.077,1.419-.172,2.845-.283,3.75a4.383,4.383,0,0,1-.16.868C360.416,216.794,363.252,220.387,363.252,220.387Z" transform="translate(-262.988 -150.358)"/></g></svg>